<?xml version="1.0" encoding="iso-8859-1"?>
<!-- Uploaded to: SVG Repo, www.svgrepo.com, Generator: SVG Repo Mixer Tools -->
<svg height="800px" width="800px" version="1.1" id="Layer_1" xmlns="http://www.w3.org/2000/svg" xmlns:xlink="http://www.w3.org/1999/xlink" 
	 viewBox="0 0 512 512" xml:space="preserve">
<path style="fill:#F9A395;" d="M495.96,288.227v107.403h-49.846c-6.684,21.318-16.904,41.055-29.983,58.548V512h-84.794v-40.817
	l-1.705,0.64c-22.697,8.489-46.548,12.728-70.386,12.728c-24.44,0-48.88-4.452-72.066-13.367V512h-84.794v-57.821
	C94.122,443.131,87,431.181,81.194,418.516l-9.718-25.932c-5.655-13.668-8.201-28.114-8.979-41.72
	c-1.756-31.099,5.894-61.997,21.13-89.158c4.865-8.69,10.559-18.032,16.352-25.832c25.393-34.234,59.426-58.699,96.995-72.342
	c57.583-20.941,123.504-16.452,179.445,17.267c2.533,1.53,4.314,2.684,5.179,3.373c9.555-13.969,25.644-23.136,43.852-23.136h10.458
	v91.528c5.43,11.323,9.819,23.261,13.004,35.663H495.96z"/>
<path style="fill:#E59188;" d="M331.339,471.183l-1.705,0.64c-22.697,8.489-46.548,12.728-70.386,12.728
	c-24.44,0-48.88-4.452-72.066-13.367V512h-84.794v-57.821c-8.264-11.048-15.386-22.998-21.192-35.663l-9.718-25.932
	c-5.655-13.668-8.201-28.114-8.978-41.72c-1.756-31.099,5.894-61.997,21.13-89.158c4.865-8.69,10.559-18.032,16.352-25.832
	c25.393-34.234,59.426-58.699,96.995-72.342c0,0-99.975,101.284-81.421,183.332C143.768,471.634,241.152,471.183,331.339,471.183z"
	/>
<path style="fill:#344F5E;" d="M214.71,199.16l-5.955-17.843c7.479-2.497,15.199-4.547,22.947-6.097
	c28.253-5.647,57.817-4.725,85.496,2.666l-4.853,18.173c-24.907-6.651-51.517-7.479-76.956-2.394
	C228.406,195.062,221.449,196.91,214.71,199.16z"/>
<path style="fill:#E59188;" d="M57.983,331.544c-11.174,0-20.807-2.913-27.877-8.434c-9.333-7.287-14.066-18.486-14.066-33.284
	c0-5.194,4.211-9.405,9.405-9.405s9.405,4.211,9.405,9.405c0,8.832,2.235,14.87,6.832,18.46c7.938,6.195,22.252,4.458,26.64,3.361
	c5.041-1.261,10.145,1.803,11.405,6.843c1.26,5.04-1.803,10.146-6.843,11.405c-0.66,0.165-6.672,1.613-14.589,1.65
	C58.191,331.544,58.086,331.544,57.983,331.544z"/>
<path style="fill:#344F5E;" d="M407.961,287.336c0,2.859-0.665,5.555-1.856,7.95c-2.922,5.969-9.054,10.069-16.151,10.069
	c-9.944,0-18.007-8.063-18.007-18.02c0-9.568,7.461-17.393,16.891-17.97c0.376-0.025,0.74-0.038,1.116-0.038
	C399.898,269.329,407.961,277.392,407.961,287.336z"/>
<path style="fill:#415E72;" d="M407.961,287.336c0,2.859-0.665,5.555-1.856,7.95c-0.364,0.025-0.74,0.038-1.104,0.038
	c-9.944,0-18.007-8.063-18.007-18.02c0-2.847,0.665-5.543,1.843-7.938c0.376-0.025,0.74-0.038,1.116-0.038
	C399.898,269.329,407.961,277.392,407.961,287.336z"/>
<path style="fill:#FCD577;" d="M319.701,61.194c0,33.807-27.399,61.194-61.194,61.194c-12.176,0-23.525-3.549-33.055-9.681
	c-16.929-10.885-28.139-29.882-28.139-51.514C197.312,27.399,224.712,0,258.507,0c13.192,0,25.406,4.176,35.4,11.261
	C309.519,22.358,319.701,40.591,319.701,61.194z"/>
<path style="fill:#EAC36E;" d="M293.907,61.194c0,19.557-15.85,35.4-35.4,35.4c-7.044,0-13.608-2.053-19.122-5.6
	c-9.794-6.296-16.278-17.286-16.278-29.8c0-19.55,15.85-35.4,35.4-35.4c7.632,0,14.697,2.415,20.479,6.514
	C288.017,38.728,293.907,49.276,293.907,61.194z"/>
<path style="fill:#FCECC8;" d="M319.706,61.193c0,33.807-27.399,61.194-61.194,61.194c-12.176,0-23.525-3.549-33.055-9.681
	l14.433-21.393l39.576-58.649l14.446-21.405C309.524,22.357,319.706,40.59,319.706,61.193z"/>
<path style="fill:#FCD577;" d="M293.912,61.193c0,19.562-15.85,35.4-35.4,35.4c-6.834,0-13.217-1.931-18.622-5.279l39.576-58.649
	C288.231,39.11,293.912,49.493,293.912,61.193z"/>
</svg>