<?xml version="1.0" encoding="UTF-8"?>
<svg width="200" height="200.74" version="1.1" viewBox="0 0 200 200.74" xml:space="preserve" xmlns="http://www.w3.org/2000/svg"><defs><clipPath id="clipPath18"><path d="m0 0h595.2v841.92h-595.2z" clip-rule="evenodd"/></clipPath><clipPath id="clipPath28"><path d="m-0.25 0.47002h111.11v111.98h-111.11z"/></clipPath></defs><g transform="matrix(1.3333 0 0 -1.3333 -75.6 1189.7)"><g transform="matrix(1.7942 0 0 1.7942 -45.03 -589.05)"><g clip-path="url(#clipPath18)"><g transform="matrix(1.1562,-8e-7,0,1.1667,56.7,741.17)"><g transform="scale(.65373 .64516)"><g clip-path="url(#clipPath28)"><g transform="translate(97.103,85.793)"><path d="m0 0c-1.951 3.376-4.428 6.527-7.279 9.378-7.279 7.279-16.659 11.999-26.64 13.429-1.275 0.6-2.551 1.05-3.902 1.5-4.427 1.42-8.93 2.1-13.357 2.1-11.556 0-22.587-4.88-30.166-13.579-4.953-5.551-8.18-12.303-9.456-19.505-4.052-7.127-6.303-15.379-6.303-24.156 0-21.381 13.657-39.611 32.718-46.363 7.879-4.951 17.184-7.877 27.165-7.877 27.99 0 50.727 22.731 50.727 50.714 0 13.278-5.1 25.282-13.507 34.359zm-90.124-7.952c3.677 6.827 9.005 12.603 15.383 16.879l-1.2-1.2c-8.78-9.678-13.058-22.206-12.157-35.259-1.051 2.85-1.726 5.701-2.101 8.702-0.525 3.676-0.45 7.352 0.075 10.878zm58.682 28.579c3.076-1.72 5.853-3.82 8.329-6.3-3.377 0.98-6.979 1.58-10.656 1.88-4.502 1.35-9.305 2.1-14.257 2.1-4.953 0-9.756-0.75-14.258-2.1 6.604 3.45 13.958 5.32 21.537 5.32 1.501 0 3.076-0.07 4.652-0.22s3.077-0.38 4.653-0.68zm-16.584-3.52c3.151 0 6.153-0.3 9.08-0.83-23.038-0.82-42.173-16.952-47.501-38.558 0.45 10.728 4.502 20.781 11.781 28.808 2.251 2.475 4.728 4.651 7.429 6.527 5.853 2.623 12.382 4.053 19.211 4.053zm39.546-8.93c0.751-0.825 1.501-1.575 2.176-2.4-4.502 3.451-9.605 6.151-15.083 8.027-2.176 2.323-4.577 4.353-7.279 6.153 7.579-2.1 14.558-6.153 20.186-11.78zm-72.264 4.126c7.504 8.404 18.235 13.274 29.566 13.274 4.352 0 8.78-0.67 13.132-2.1 0.3-0.07 0.6-0.22 0.976-0.3-1.276 0.08-2.477 0.08-3.677 0.08-10.881 0-21.387-3.68-29.716-10.429-7.805-3.976-14.333-10.052-19.061-17.404 1.501 6.226 4.428 11.928 8.78 16.879zm-15.233-43.136c0 7.427 1.726 14.479 4.727 20.78-0.225-2.925-0.225-5.926 0.15-8.927 0.526-3.976 1.651-7.877 3.302-11.478 0-0.075 0.075-0.15 0.075-0.225-0.15-1.201-0.15-2.476-0.15-3.676 0-16.13 7.504-30.534 19.286-39.761-16.209 7.652-27.39 24.232-27.39 43.287z" fill="#00adee"/></g><g transform="translate(89.299,59.236)"><path d="m0 0c-0.301 0.075-0.676 0.075-1.126 0.075-2.852 0-4.277-1.501-5.028-2.626h-0.075v2.101h-3.302v-14.254h3.302v7.577c0 0.975 0 3.751 4.203 3.826 1.125 0 1.725-0.225 2.026-0.3z" fill="#fefefe"/></g><g transform="translate(35.87,59.311)"><path d="m0 0c-5.328 0-7.955-3.601-7.955-7.652 0-4.426 3.077-7.652 8.18-7.652 5.253 0 7.204 3.601 7.429 4.801h-3.602c-0.526-1.125-1.876-2.101-3.977-2.101-4.053 0.15-4.578 3.151-4.653 4.052h12.532c0 5.101-2.627 8.477-7.954 8.552zm-4.503-6.002c0.675 2.701 2.627 3.301 4.352 3.301 2.402 0 4.053-0.9 4.578-3.301z" fill="#fefefe"/></g><g transform="translate(53.654,59.311)"><path d="m0 0c-2.776 0-4.127-0.975-5.478-2.026v6.602h-3.302v-19.355h3.227v1.8c0.676-0.675 2.402-2.325 5.628-2.325 4.052 0 7.579 2.926 7.579 7.727 0 4.351-3.001 7.577-7.654 7.577zm-0.6-12.454c-2.326 0-3.602 1.051-4.878 2.101v5.552c0.976 0.825 2.327 1.95 4.728 1.95 2.551 0 5.028-1.575 5.028-4.801 0-3.151-2.327-4.802-4.878-4.802z" fill="#fefefe"/></g><g transform="translate(75.041,44.532)"><path d="m0 0h3.302v14.329h-3.302v-1.201c-0.901 0.976-2.777 1.651-4.728 1.651-5.703 0-8.029-3.826-8.029-7.652 0-5.702 4.127-7.652 8.029-7.652 1.651 0 3.752 0.75 4.728 1.875zm-4.728 2.325c-2.926 0-4.652 1.801-4.652 4.877 0 3.376 2.101 4.726 4.652 4.726 2.477 0 4.653-1.35 4.653-4.726 0-3.076-1.651-4.877-4.653-4.877z" fill="#fefefe"/></g><g transform="translate(101.61,44.532)"><path d="m0 0h3.3v14.329h-3.3v-1.201c-0.83 0.976-2.781 1.651-4.732 1.651-5.703 0-8.03-3.826-8.03-7.652 0-5.702 4.128-7.652 8.03-7.652 1.651 0 3.752 0.75 4.732 1.875zm-4.732 2.325c-2.927 0-4.653 1.801-4.653 4.877 0 3.376 2.176 4.726 4.653 4.726 2.551 0 4.652-1.35 4.652-4.726 0-3.076-1.651-4.877-4.652-4.877z" fill="#fefefe"/></g><g transform="translate(27.165,47.833)"><path d="m0 0h-8.03v16.054h-3.376v-19.355h14.032c-1.2 0.825-2.101 2.025-2.626 3.301z" fill="#fefefe"/></g><g transform="translate(89.299,59.236)"><path d="m0 0c-0.301 0.075-0.676 0.075-1.126 0.075-2.852 0-4.277-1.501-5.028-2.626h-0.075v2.101h-3.302v-14.254h3.302v7.577c0 0.975 0 3.751 4.203 3.826 1.125 0 1.725-0.225 2.026-0.3z" fill="#fefefe"/></g><g transform="translate(35.87,59.311)"><path d="m0 0c-5.328 0-7.955-3.601-7.955-7.652 0-4.426 3.077-7.652 8.18-7.652 5.253 0 7.204 3.601 7.429 4.801h-3.602c-0.526-1.125-1.876-2.101-3.977-2.101-4.053 0.15-4.578 3.151-4.653 4.052h12.532c0 5.101-2.627 8.477-7.954 8.552zm-4.503-6.002c0.675 2.701 2.627 3.301 4.352 3.301 2.402 0 4.053-0.9 4.578-3.301z" fill="#fefefe"/></g><g transform="translate(53.654,59.311)"><path d="m0 0c-2.776 0-4.127-0.975-5.478-2.026v6.602h-3.302v-19.355h3.227v1.8c0.676-0.675 2.402-2.325 5.628-2.325 4.052 0 7.579 2.926 7.579 7.727 0 4.351-3.001 7.577-7.654 7.577zm-0.6-12.454c-2.326 0-3.602 1.051-4.878 2.101v5.552c0.976 0.825 2.327 1.95 4.728 1.95 2.551 0 5.028-1.575 5.028-4.801 0-3.151-2.327-4.802-4.878-4.802z" fill="#fefefe"/></g><g transform="translate(75.041,44.532)"><path d="m0 0h3.302v14.329h-3.302v-1.201c-0.901 0.976-2.777 1.651-4.728 1.651-5.703 0-8.029-3.826-8.029-7.652 0-5.702 4.127-7.652 8.029-7.652 1.651 0 3.752 0.75 4.728 1.875zm-4.728 2.325c-2.926 0-4.652 1.801-4.652 4.877 0 3.376 2.101 4.726 4.652 4.726 2.477 0 4.653-1.35 4.653-4.726 0-3.076-1.651-4.877-4.653-4.877z" fill="#fefefe"/></g><g transform="translate(101.61,44.532)"><path d="m0 0h3.3v14.329h-3.3v-1.201c-0.83 0.976-2.781 1.651-4.732 1.651-5.703 0-8.03-3.826-8.03-7.652 0-5.702 4.128-7.652 8.03-7.652 1.651 0 3.752 0.75 4.732 1.875zm-4.732 2.325c-2.927 0-4.653 1.801-4.653 4.877 0 3.376 2.176 4.726 4.653 4.726 2.551 0 4.652-1.35 4.652-4.726 0-3.076-1.651-4.877-4.652-4.877z" fill="#fefefe"/></g><g transform="translate(27.165,47.833)"><path d="m0 0h-8.03v16.054h-3.376v-19.355h14.032c-1.2 0.825-2.101 2.025-2.626 3.301z" fill="#fefefe"/></g></g></g></g></g></g></g></svg>
